<?xml version="1.0" encoding="iso-8859-1"?>
<!-- Generator: Adobe Illustrator 19.0.0, SVG Export Plug-In . SVG Version: 6.00 Build 0)  -->
<svg version="1.1" id="Capa_1" xmlns="http://www.w3.org/2000/svg" xmlns:xlink="http://www.w3.org/1999/xlink" x="0px" y="0px"
	 viewBox="0 0 512 512" style="enable-background:new 0 0 512 512;" xml:space="preserve">
<circle style="fill:#80D5FF;" cx="256" cy="256" r="256"/>
<path style="fill:#ABE84B;" d="M260.635,75.626c11.775,8.132,26.176,9.579,38.718,5.175c2.382-0.836,3.963-3.126,3.901-5.649
	c-0.324-13.289-6.776-26.244-18.552-34.376c-11.775-8.132-26.176-9.579-38.719-5.175c-2.382,0.836-3.963,3.126-3.901,5.649
	C242.406,54.539,248.859,67.494,260.635,75.626z"/>
<path style="fill:#95DB1B;" d="M274.554,60.169c-9.534-6.584-15.576-16.33-17.703-26.855c-3.702,0.298-7.358,1.054-10.866,2.286
	c-2.382,0.836-3.963,3.126-3.901,5.649c0.324,13.289,6.777,26.244,18.552,34.377c11.775,8.132,26.176,9.579,38.718,5.175
	c2.382-0.836,3.963-3.126,3.902-5.649c-0.062-2.53-0.349-5.047-0.849-7.522C292.876,68.397,283.035,66.026,274.554,60.169z"/>
<path style="fill:#ABE84B;" d="M165.041,142.023c-1.544,1.727-2.028,4.221-1.242,6.401c10.712,29.719,35.274,52.854,67.187,59.049
	c12.462,2.419,24.85,2.023,36.577-0.761c36.112-8.573,45.796-58.462,15.514-79.923C246.964,101.196,196.833,106.455,165.041,142.023
	z"/>
<path style="fill:#95DB1B;" d="M277.378,172.94c-11.726,2.784-24.115,3.18-36.577,0.761c-26.743-5.191-48.319-22.283-60.913-45.173
	c-5.359,3.936-10.343,8.455-14.848,13.495c-1.544,1.727-2.028,4.221-1.242,6.401c10.712,29.719,35.274,52.854,67.187,59.049
	c12.462,2.419,24.851,2.023,36.577-0.761c23.047-5.472,35.326-27.772,33.325-48.77C295.235,165.097,287.309,170.583,277.378,172.94z
	"/>
<path style="fill:#ABE84B;" d="M430.856,86.176c1.312,0.858,2.065,2.402,1.934,3.964c-2.693,32.119-27.6,55.404-57.565,56.28
	c-25.096,0.733-40.173-30.161-24.154-49.493C370.175,73.874,403.847,68.516,430.856,86.176z"/>
<path style="fill:#95DB1B;" d="M357.405,114.398c5.202-6.277,11.733-11.534,19.45-15.301c17.604-8.591,37.525-7.539,54.309,1.058
	c0.794-3.27,1.341-6.618,1.626-10.015c0.131-1.562-0.622-3.106-1.934-3.964c-26.977-17.639-60.657-12.332-79.784,10.751
	c-9.442,11.395-8.074,26.802-0.225,37.387C350.491,127.42,352.465,120.359,357.405,114.398z"/>
<g>
	<path style="fill:#8DC610;" d="M315.051,119.899c-5.399-24.213-22.235-37.658-22.405-37.791c-3.468-2.722-4.096-7.746-1.387-11.225
		c2.707-3.48,7.704-4.125,11.197-1.43c0.875,0.676,21.519,16.898,28.223,46.961c0.962,4.315-1.756,8.594-6.072,9.556
		C320.309,126.929,316.017,124.232,315.051,119.899z"/>
	<path style="fill:#8DC610;" d="M384.29,216.62c-2.647-3.539-7.664-4.263-11.206-1.616c-0.777,0.581-19.036,14.59-19.036,45.204
		v25.49c0,4.421,3.584,8.006,8.006,8.006c4.421,0,8.006-3.584,8.006-8.006v-25.49c0-22.12,12.026-31.916,12.673-32.426
		C386.222,225.123,386.923,220.141,384.29,216.62z"/>
	<path style="fill:#8DC610;" d="M322.865,255.261c-4.421,0-8.006-3.584-8.006-8.006V119.226c0-46.407,30.764-82.177,32.073-83.677
		c2.908-3.331,7.965-3.673,11.296-0.766c3.327,2.905,3.672,7.956,0.773,11.287l0,0c-0.281,0.324-28.131,32.881-28.131,73.155
		v128.029C330.871,251.677,327.286,255.261,322.865,255.261z"/>
	<path style="fill:#8DC610;" d="M322.855,234.171c-4.082,0-7.569-3.107-7.961-7.253c-1.77-18.729-11.098-34.831-27.724-47.86
		c-22.728-17.81-52.517-24.26-81.447-23.109c-4.395,0.173-8.142-3.264-8.317-7.682s3.264-8.142,7.682-8.317
		c73.567-2.916,121.308,38.516,125.746,85.46c0.416,4.402-2.815,8.307-7.217,8.724C323.362,234.159,323.108,234.171,322.855,234.171
		z"/>
	<path style="fill:#8DC610;" d="M319.922,173.171c-4.112-1.625-6.127-6.276-4.502-10.388c19.629-49.654,70.689-63.529,72.853-64.095
		c4.275-1.122,8.652,1.441,9.772,5.718c1.118,4.272-1.435,8.641-5.702,9.767l0,0c-0.452,0.121-45.446,12.536-62.033,54.496
		C328.682,172.786,324.028,174.795,319.922,173.171z"/>
</g>
<path style="fill:#BC7D4D;" d="M276.7,313.626c24.056,16.44,45.619,17.414,64.657,22.755c25.687,4.458,48.1,12.75,48.1,28.122
	c0,4.75-1.118,8.608-3.022,11.739h0.002c0,0,59.892-28.068,87.49-43.797c1.4-0.798,2.798-1.497,4.191-2.108
	c-4.07-1.894-5.247-0.794-24.559-1.118c-5.714,0-11.18-4.581-15.136-12.684l-9.877-20.23c-3.956-8.103-9.423-12.684-15.136-12.684
	h-32.412c-4.834,0-9.52-3.282-13.265-9.289l-14.324-22.979c-3.745-6.008-8.431-9.289-13.265-9.289h-6.819h-18.114h-6.819
	c-4.834,0-9.52,3.281-13.265,9.289l-14.323,22.979c-3.745,6.008-8.431,9.289-13.265,9.289h-32.412
	c-5.714,0-11.18,4.581-15.136,12.684l-2.212,4.531C235.773,298.32,256.751,299.993,276.7,313.626z"/>
<path style="fill:#AD7147;" d="M265.302,307.125c2.865-5.824,6.221-9.011,9.686-9.011h27.67c4.127,0,8.127-4.505,11.324-12.752
	l12.228-31.544c2.326-6,5.077-10.007,7.993-11.752h-0.878h-18.114h-6.819c-4.834,0-9.52,3.281-13.265,9.289l-14.323,22.979
	c-3.745,6.008-8.431,9.289-13.265,9.289h-32.412c-5.714,0-11.18,4.581-15.136,12.684l-2.212,4.531
	C232.372,298.796,248.925,299.512,265.302,307.125z"/>
<path style="fill:#EDB87E;" d="M506.076,332.747c-7.994-9.302-19.76-9.022-31.546-2.458c-27.598,15.372-87.49,42.801-87.49,42.801
	h-0.002c1.904-3.059,3.022-6.831,3.022-11.472c0-15.023-22.413-23.126-48.1-27.483c-19.747-5.413-40.815-6.313-64.658-22.237
	c-27.634-18.456-57.244-14.488-78.16-8.267c-22.459,6.679-39.025,4.128-55.72,4.683v4.016l0,0v110.554
	c9.222,0.811,19.802-0.737,34.41,5.202c25.654,10.431,95.072,33.705,142.629,33.705c39.15,0,136.082-55.571,180.592-93.806
	C512.753,357.934,516.079,344.388,506.076,332.747z"/>
<g>
	<path style="fill:#E4A970;" d="M387.04,373.09L387.04,373.09c-5.715,7.122-15.267,10.962-24.399,9.683l-85.088-11.837
		c-4.378-0.611-8.423,2.446-9.032,6.826c-0.609,4.379,2.446,8.423,6.826,9.033l85.088,11.837c14.95,2.078,30.609-3.889,40.765-18.16
		c0.724-1.068,1.666-3.098,7.833-14.675c0.57-1.079,0.859-2.229,0.911-3.372C396.651,368.688,387.04,373.09,387.04,373.09z"/>
	<path style="fill:#E4A970;" d="M218.327,299.407c-19.9,2.731-26.501,8.906-52.244,8.906h-22.66c0,40.763,0,90.997,0,114.571
		c9.222,0.811,19.802-0.737,34.41,5.203c8.589,3.492,22.087,8.424,38.024,13.44C168.394,405.259,169.945,333.794,218.327,299.407z"
		/>
</g>
<path style="fill:#EFEFEF;" d="M136.105,278.096H87.74v170.833c1.127,0.983,2.267,1.951,3.411,2.915h44.954
	c5.22,0,9.452-4.232,9.452-9.452V287.548C145.558,282.328,141.326,278.096,136.105,278.096z"/>
<path style="fill:#DDDDDD;" d="M136.105,396.028H91.151c-1.144-0.964-2.285-1.931-3.411-2.915v55.815
	c1.127,0.983,2.267,1.951,3.411,2.915h44.954c5.221,0,9.452-4.232,9.452-9.452v-55.815
	C145.558,391.796,141.326,396.028,136.105,396.028z"/>
<path style="fill:#7389A0;" d="M80.429,267.978H0.288c3.369,73.134,37.423,138.25,89.587,182.786V277.423
	C89.875,272.207,85.646,267.978,80.429,267.978z"/>
<path style="fill:#647892;" d="M80.429,405.431H48.156c12.053,16.734,26.063,31.967,41.719,45.333v-54.779
	C89.875,401.202,85.646,405.431,80.429,405.431z"/>
<g>
</g>
<g>
</g>
<g>
</g>
<g>
</g>
<g>
</g>
<g>
</g>
<g>
</g>
<g>
</g>
<g>
</g>
<g>
</g>
<g>
</g>
<g>
</g>
<g>
</g>
<g>
</g>
<g>
</g>
</svg>
