<?xml version="1.0" encoding="iso-8859-1"?>
<!-- Generator: Adobe Illustrator 19.0.0, SVG Export Plug-In . SVG Version: 6.00 Build 0)  -->
<svg version="1.1" id="Capa_1" xmlns="http://www.w3.org/2000/svg" xmlns:xlink="http://www.w3.org/1999/xlink" x="0px" y="0px"
	 viewBox="0 0 512 512" style="enable-background:new 0 0 512 512;" xml:space="preserve">
<circle style="fill:#3997EE;" cx="256" cy="264.28" r="247.72"/>
<g>
	<path style="fill:#FAC149;" d="M320.718,47.12c-1.322,0-2.661-0.337-3.888-1.045c-3.727-2.152-5.003-6.916-2.852-10.642
		l18.208-31.536c2.151-3.727,6.916-5.003,10.643-2.852c3.727,2.152,5.003,6.916,2.852,10.642l-18.208,31.536
		C326.029,45.723,323.41,47.12,320.718,47.12z"/>
	<path style="fill:#FAC149;" d="M354.552,80.94c-2.692,0-5.311-1.397-6.754-3.896c-2.152-3.726-0.875-8.491,2.852-10.642
		l31.536-18.208c3.725-2.151,8.491-0.875,10.643,2.852c2.151,3.726,0.875,8.491-2.852,10.642L358.44,79.896
		C357.214,80.604,355.874,80.94,354.552,80.94z"/>
	<path style="fill:#FAC149;" d="M403.339,127.138h-36.415c-4.303,0-7.791-3.488-7.791-7.791s3.488-7.791,7.791-7.791h36.415
		c4.303,0,7.791,3.488,7.791,7.791C411.13,123.65,407.642,127.138,403.339,127.138z"/>
	<path style="fill:#FAC149;" d="M189.286,47.12c-2.692,0-5.311-1.397-6.754-3.896l-18.207-31.536
		c-2.152-3.726-0.875-8.491,2.852-10.642c3.726-2.151,8.491-0.875,10.643,2.852l18.207,31.536c2.152,3.726,0.875,8.491-2.852,10.642
		C191.947,46.783,190.608,47.12,189.286,47.12z"/>
	<path style="fill:#FAC149;" d="M155.452,80.94c-1.322,0-2.661-0.337-3.888-1.045l-31.536-18.208
		c-3.726-2.152-5.003-6.916-2.851-10.642c2.151-3.727,6.916-5.002,10.642-2.852l31.536,18.208c3.727,2.152,5.003,6.916,2.852,10.642
		C160.763,79.544,158.144,80.94,155.452,80.94z"/>
	<path style="fill:#FAC149;" d="M143.08,127.138h-36.415c-4.303,0-7.791-3.488-7.791-7.791s3.488-7.791,7.791-7.791h36.415
		c4.303,0,7.791,3.488,7.791,7.791S147.383,127.138,143.08,127.138z"/>
</g>
<path style="fill:#EDB87E;" d="M473.544,189.163c-9.34-0.595-16.434,6.843-18.038,16.063c-3.998,22.985-12.745,64.836-12.745,64.836
	l-0.002,0.003c-0.679-2.518-2.123-4.971-4.581-7.264c-7.526-7.021-21.694-0.362-35.909,10.062l0,0
	c-24.781,16.266-31.374,24.151-46.615,27.91c-8.011,1.976-21.055,6.5-36.207,16.769c-24.918,16.889-35.491,52.742-31.811,78.899
	c1.09,7.749,1.534,15.564,1.527,23.39c0,0.048,0,0.097,0,0.145c0,11.667,0,13.765,0,13.765h81.519l-0.011-17.654
	c-0.002-3.013,1.746-5.76,4.49-7.006c15.612-7.088,58.479-32.004,83.254-58.511c19.669-21.044,30.073-98.656,31.577-141.23
	C490.367,198.755,484.082,189.834,473.544,189.163z"/>
<g>
	<path style="fill:#E4A970;" d="M457.276,264.229c-0.502-2.056-2.888-10.512-9.531-18.514c-2.736,13.595-4.984,24.347-4.984,24.347
		l-0.002,0.003c0.34,6.12-1.87,25.715-34.982,46.842c-38.009,24.25-38.114,24.739-38.936,28.537
		c-1.657,7.667,7.787,12.611,13.184,7.102c1.116-0.872,6.97-5.173,34.134-22.504C464.862,298.969,458.167,267.6,457.276,264.229z"/>
	<path style="fill:#E4A970;" d="M372.168,411.546c-9.017,4.614-19.223,7.233-30.048,7.233c-23.031,0-43.3-11.789-55.128-29.655
		c0.1,2.504,0.312,4.952,0.645,7.318c1.09,7.749,1.534,15.564,1.527,23.39c0,0.048,0,0.097,0,0.145c0,11.667,0,13.765,0,13.765
		h81.519l-0.011-17.654C370.671,414.419,371.223,412.842,372.168,411.546z"/>
</g>
<path style="fill:#EFEFEF;" d="M387.745,470.247H276.041v-32.504c0-3.356,2.721-6.077,6.077-6.077h99.55
	c3.356,0,6.077,2.721,6.077,6.077L387.745,470.247L387.745,470.247z"/>
<path style="fill:#DDDDDD;" d="M333.86,431.665h-51.742c-3.356,0-6.077,2.721-6.077,6.077v32.504h51.742v-32.504
	C327.783,434.386,330.504,431.665,333.86,431.665z"/>
<path style="fill:#7389A0;" d="M269.536,474.242v37.386c45.271-2.438,87.305-17.037,122.91-40.58
	c-1.072-1.723-2.971-2.878-5.149-2.878H275.609C272.255,468.169,269.536,470.888,269.536,474.242z"/>
<path style="fill:#647892;" d="M269.536,474.242v37.386c17.814-0.959,35.124-3.81,51.742-8.338v-29.048
	c0-3.354,2.719-6.073,6.073-6.073h-51.742C272.255,468.169,269.536,470.888,269.536,474.242z"/>
<path style="fill:#EDB87E;" d="M38.455,189.163c9.34-0.595,16.434,6.843,18.037,16.063c3.998,22.985,12.745,64.836,12.745,64.836
	l0.002,0.003c0.679-2.518,2.123-4.971,4.581-7.264c7.526-7.021,21.694-0.362,35.908,10.062l0,0
	c24.781,16.266,31.374,24.151,46.615,27.91c8.011,1.976,21.055,6.5,36.207,16.769c24.918,16.889,35.491,52.742,31.811,78.899
	c-1.09,7.749-1.534,15.564-1.527,23.39c0,0.048,0,0.097,0,0.145c0,11.667,0,13.765,0,13.765h-81.519l0.011-17.654
	c0.002-3.013-1.746-5.76-4.49-7.006c-15.613-7.088-58.479-32.004-83.254-58.511c-19.669-21.044-30.073-98.656-31.577-141.23
	C21.633,198.755,27.919,189.834,38.455,189.163z"/>
<g>
	<path style="fill:#E4A970;" d="M54.724,264.229c0.502-2.056,2.889-10.512,9.531-18.514c2.736,13.595,4.984,24.347,4.984,24.347
		l0.002,0.003c-0.34,6.12,1.87,25.715,34.982,46.842c38.008,24.25,38.114,24.739,38.936,28.537
		c1.627,7.525-7.685,12.716-13.184,7.102c-1.116-0.872-6.97-5.173-34.134-22.504C47.138,298.969,53.833,267.6,54.724,264.229z"/>
	<path style="fill:#E4A970;" d="M139.832,411.546c9.017,4.614,19.223,7.233,30.048,7.233c23.031,0,43.3-11.789,55.128-29.655
		c-0.1,2.504-0.312,4.952-0.645,7.318c-1.09,7.749-1.534,15.564-1.527,23.39c0,0.048,0,0.097,0,0.145c0,11.667,0,13.765,0,13.765
		h-81.519l0.011-17.654C141.329,414.419,140.777,412.842,139.832,411.546z"/>
</g>
<path style="fill:#EFEFEF;" d="M124.255,470.247h111.704v-32.504c0-3.356-2.721-6.077-6.077-6.077h-99.55
	c-3.356,0-6.077,2.721-6.077,6.077V470.247z"/>
<path style="fill:#DDDDDD;" d="M178.14,431.665h51.742c3.356,0,6.077,2.721,6.077,6.077v32.504h-51.742v-32.504
	C184.217,434.386,181.496,431.665,178.14,431.665z"/>
<path style="fill:#7389A0;" d="M236.391,468.169H124.704c-2.178,0-4.078,1.155-5.149,2.878
	c35.605,23.543,77.638,38.142,122.91,40.58v-37.386C242.464,470.888,239.745,468.169,236.391,468.169z"/>
<path style="fill:#647892;" d="M236.391,468.169h-51.742c3.354,0,6.073,2.719,6.073,6.073v29.048
	c16.618,4.529,33.928,7.379,51.742,8.338v-37.386C242.464,470.888,239.745,468.169,236.391,468.169z"/>
<path style="fill:#95DB1B;" d="M260.548,53.705c-3.361-2.182-7.732-2.182-11.093,0c-77.177,50.102-77.233,162.91,0,213.048
	c3.361,2.182,7.733,2.182,11.093,0c34.857-22.628,57.93-61.87,57.93-106.524S295.406,76.333,260.548,53.705z"/>
<path style="fill:#8DC610;" d="M226.821,160.229c0-44.654,11.861-83.896,29.779-106.524c0.421-0.532,0.873-0.929,1.341-1.201
	c-2.824-0.846-5.943-0.449-8.485,1.201c-77.177,50.102-77.233,162.91,0,213.048c2.542,1.65,5.661,2.048,8.485,1.201
	C253.82,265.552,226.821,228.532,226.821,160.229z"/>
<path style="fill:#ABE84B;" d="M204.036,105.248c10.456,20.41,26.13,37.706,45.265,50.128c3.454,2.243,7.946,2.243,11.4,0
	c19.135-12.422,34.809-29.718,45.265-50.128c-10.149-21.064-25.941-38.899-45.419-51.543c-3.361-2.182-7.733-2.182-11.094,0
	C229.978,66.349,214.185,84.184,204.036,105.248z"/>
<path style="fill:#95DB1B;" d="M204.037,105.248c6.21,12.122,14.273,23.133,23.796,32.69c3.213-35.247,13.901-65.46,28.767-84.233
	c0.421-0.532,0.873-0.929,1.341-1.201c-2.735-0.819-5.961-0.438-8.485,1.201C217.119,74.696,205.357,103.251,204.037,105.248z"/>
<path style="fill:#ABE84B;" d="M261.553,211.706c-3.97,1.966-9.133,1.966-13.103,0c-25.224-12.495-45.208-30.615-56.916-52.028
	c-0.193,44.51,22.59,84.138,57.921,107.074c3.361,2.182,7.733,2.182,11.094,0c34.857-22.628,57.93-61.87,57.93-106.524
	c0-0.184-0.008-0.366-0.009-0.55C306.761,181.091,286.777,199.212,261.553,211.706z"/>
<path style="fill:#95DB1B;" d="M257.94,267.954c-3.013-1.757-20.309-24.891-27.65-66.828c-16.682-11.34-30.023-25.476-38.756-41.448
	c-0.199,44.353,22.462,84.055,57.921,107.074C251.883,268.329,255.053,268.82,257.94,267.954z"/>
<path style="fill:#8DC610;" d="M255.002,314.919c-4.915,0-8.9-3.984-8.9-8.9V106.028c0-4.916,3.984-8.899,8.9-8.899
	c4.915,0,8.9,3.984,8.9,8.899V306.02C263.901,310.935,259.917,314.919,255.002,314.919z"/>
<g>
</g>
<g>
</g>
<g>
</g>
<g>
</g>
<g>
</g>
<g>
</g>
<g>
</g>
<g>
</g>
<g>
</g>
<g>
</g>
<g>
</g>
<g>
</g>
<g>
</g>
<g>
</g>
<g>
</g>
</svg>
